<?xml version="1.0" encoding="iso-8859-1"?>
<!-- Generator: Adobe Illustrator 16.0.0, SVG Export Plug-In . SVG Version: 6.00 Build 0)  -->
<!DOCTYPE svg PUBLIC "-//W3C//DTD SVG 1.1//EN" "http://www.w3.org/Graphics/SVG/1.1/DTD/svg11.dtd">
<svg xmlns="http://www.w3.org/2000/svg" xmlns:xlink="http://www.w3.org/1999/xlink" version="1.1" id="Capa_1" x="0px" y="0px" width="512px" height="512px" viewBox="0 0 93.267 93.267" style="enable-background:new 0 0 93.267 93.267;" xml:space="preserve">
<g>
	<path d="M67.035,0H26.231c-2.228,0-4.036,1.807-4.036,4.035v85.198c0,2.228,1.808,4.034,4.036,4.034h40.804   c2.229,0,4.036-1.807,4.036-4.034V4.035C71.071,1.807,69.264,0,67.035,0z M43.187,4.933h6.894c0.233,0,0.42,0.188,0.42,0.42   c0,0.231-0.188,0.42-0.42,0.42h-6.894c-0.233,0-0.42-0.189-0.42-0.42C42.766,5.121,42.953,4.933,43.187,4.933z M46.633,89.624   c-1.454,0-2.634-1.181-2.634-2.634c0-1.455,1.18-2.635,2.634-2.635c1.455,0,2.634,1.18,2.634,2.635   C49.268,88.443,48.088,89.624,46.633,89.624z M67.19,81.609H26.076V11.658h41.113L67.19,81.609L67.19,81.609z" fill="#FFFFFF"/>
</g>
<g>
</g>
<g>
</g>
<g>
</g>
<g>
</g>
<g>
</g>
<g>
</g>
<g>
</g>
<g>
</g>
<g>
</g>
<g>
</g>
<g>
</g>
<g>
</g>
<g>
</g>
<g>
</g>
<g>
</g>
</svg>
